<?xml version="1.0" standalone="no"?>
<!DOCTYPE svg PUBLIC "-//W3C//DTD SVG 20010904//EN"
 "http://www.w3.org/TR/2001/REC-SVG-20010904/DTD/svg10.dtd">
<svg version="1.0" xmlns="http://www.w3.org/2000/svg"
 width="1920.000000pt" height="600.000000pt" viewBox="0 0 1920.000000 600.000000"
 preserveAspectRatio="xMidYMid meet">

<g transform="translate(0.000000,600.000000) scale(0.100000,-0.100000)"
fill="#000000" stroke="none">
<path d="M9575 5610 c-397 -20 -759 -71 -970 -137 -44 -14 -83 -27 -87 -30 -7
-4 55 -98 71 -108 4 -2 48 7 97 21 355 97 771 144 1282 144 519 0 878 -40
1261 -140 63 -17 115 -30 116 -30 3 0 75 107 75 112 0 18 -342 95 -549 123
-317 43 -923 64 -1296 45z"/>
<path d="M9430 5349 c-278 -14 -510 -48 -687 -101 -40 -11 -73 -24 -73 -27 0
-9 67 -72 110 -104 37 -26 180 -100 217 -111 18 -6 23 -1 32 27 21 62 81 103
188 131 73 19 284 38 296 27 8 -8 43 -182 333 -1618 65 -325 120 -590 121
-589 2 1 41 193 89 427 47 233 142 701 210 1039 69 338 130 642 136 675 6 33
13 63 17 67 8 9 228 -9 288 -23 111 -28 188 -82 200 -140 3 -16 11 -29 17 -29
6 0 56 22 111 50 106 52 243 156 228 171 -13 13 -162 55 -263 74 -150 28 -319
44 -594 57 l-269 12 -56 -64 c-31 -35 -70 -80 -86 -98 l-31 -34 -79 96 -79 96
-105 -1 c-59 -1 -180 -6 -271 -10z"/>
<path d="M2260 2139 c0 -7 16 -46 36 -88 46 -95 150 -202 239 -246 l60 -30
340 -6 c187 -3 341 -6 343 -7 1 -1 2 -345 2 -764 l0 -763 185 0 185 0 0 757
c0 738 0 758 19 768 12 6 135 10 329 10 341 0 347 1 447 64 100 64 174 155
216 266 l19 50 -1210 0 c-902 0 -1210 -3 -1210 -11z"/>
<path d="M5600 2134 c0 -9 14 -46 32 -83 42 -87 160 -206 243 -247 l60 -29
760 0 760 0 70 34 c90 44 179 132 227 226 20 39 39 80 43 93 l6 22 -1100 0
c-1010 0 -1101 -1 -1101 -16z"/>
<path d="M8880 1578 l0 -568 860 0 860 0 0 -200 0 -200 -680 0 -679 0 -65 -24
c-157 -57 -297 -173 -385 -318 l-23 -38 1096 0 1096 0 0 580 0 580 -860 0
-860 0 0 190 0 190 664 0 c572 0 670 2 707 15 74 26 179 94 240 156 52 54 119
163 119 195 0 10 -203 12 -1045 11 l-1045 -2 0 -567z"/>
<path d="M12213 2142 l-183 -2 0 -955 0 -955 861 0 861 0 61 33 c34 17 87 57
117 87 53 53 120 165 134 222 l6 28 -832 2 -833 3 -5 770 -5 770 -182 -3z"/>
<path d="M14825 2128 c36 -127 153 -264 275 -323 l74 -35 746 0 745 0 58 24
c80 33 160 98 214 173 40 56 83 146 83 173 0 7 -382 10 -1101 10 l-1100 0 6
-22z"/>
<path d="M5600 1375 c0 -9 15 -46 32 -83 42 -87 158 -206 243 -248 l60 -29
760 0 760 0 67 33 c85 41 156 106 205 185 34 53 73 136 73 152 0 3 -495 5
-1100 5 -978 0 -1100 -2 -1100 -15z"/>
<path d="M14880 812 l0 -582 183 0 182 0 0 382 0 383 683 3 682 2 0 -385 0
-385 180 0 180 0 0 575 0 575 -347 0 c-192 0 -662 3 -1045 7 l-698 6 0 -581z"/>
<path d="M5600 595 c0 -9 15 -46 32 -83 42 -87 158 -206 243 -248 l60 -29 760
0 760 0 69 34 c90 44 181 134 228 226 20 39 39 80 43 93 l6 22 -1100 0 c-979
0 -1101 -2 -1101 -15z"/>
</g>
</svg>
